#!OML:ASF F:\VICON\USERDATA\INSTALL\rory3\rory3.ASF
:FULLY-SPECIFIED
:DEGREES
210
root 4.60969 17.35 2.81376 14.9957 -5.92793 -7.82089
lowerback -2.50531 -1.72504 5.80647
upperback -5.90783 -2.19255 2.94414
thorax -4.83289 -1.28974 -0.147475
lowerneck -12.5629 2.70464 0.0227295
upperneck 39.5891 3.08652 2.13515
head 16.204 1.51422 1.43409
rclavicle -2.89239e-014 1.71949e-014
rhumerus -1.97875 -10.5408 0.647679
rradius 109.777
rwrist -48.6553
rhand -3.76977 -44.4117
rfingers 7.12502
rthumb 21.975 -73.1835
lclavicle -2.89239e-014 1.71949e-014
lhumerus 24.3772 23.3029 -6.92991
lradius 32.9689
lwrist 35.23
lhand -23.775 -19.5194
lfingers 7.12502
lthumb 2.6947 10.4433
rfemur -19.4308 10.2245 4.39286
rtibia 37.6911
rfoot 20.2335 -6.12803
rtoes -26.6058
lfemur -29.3242 -1.14381 -19.8225
ltibia 33.9953
lfoot -17.3345 8.13047
ltoes 14.1262
211
root 4.61266 17.3446 2.81205 14.9583 -5.98738 -7.82331
lowerback -2.60783 -1.71055 5.7129
upperback -5.73259 -2.19087 2.94786
thorax -4.58435 -1.27737 -0.101977
lowerneck -12.6867 2.66343 0.0587156
upperneck 39.6676 3.06075 2.01156
head 16.2811 1.48962 1.37427
rclavicle -5.24295e-015 -3.57812e-015
rhumerus -1.95074 -10.6104 0.382877
rradius 109.753
rwrist -48.7476
rhand -3.21879 -44.5172
rfingers 7.12502
rthumb 22.504 -73.2259
lclavicle -5.24295e-015 -3.57812e-015
lhumerus 24.3562 23.5364 -6.57023
lradius 32.8772
lwrist 35.0239
lhand -21.9436 -19.464
lfingers 7.12502
lthumb 4.4632 10.4689
rfemur -19.637 10.1775 4.37639
rtibia 38.0431
rfoot 20.2731 -5.9251
rtoes -26.6859
lfemur -29.3766 -1.08288 -19.8564
ltibia 34.1801
lfoot -17.4211 8.13479
ltoes 14.0578
212
root 4.61692 17.3386 2.81226 14.8541 -6.13669 -7.77521
lowerback -2.53901 -1.65987 5.56024
upperback -5.63714 -2.12293 2.94299
thorax -4.51223 -1.2342 -0.0247744
lowerneck -12.7442 2.58756 0.0857989
upperneck 39.8047 2.99979 1.85043
head 16.3746 1.44342 1.29331
rclavicle -1.77974e-014 6.4605e-016
rhumerus -1.91606 -10.4831 0.128966
rradius 109.644
rwrist -48.6343
rhand -3.08674 -44.3688
rfingers 7.12502
rthumb 22.6307 -73.0621
lclavicle -1.77974e-014 6.4605e-016
lhumerus 24.4104 23.6097 -6.12663
lradius 32.757
lwrist 34.7462
lhand -21.7659 -18.9775
lfingers 7.12502
lthumb 4.63481 10.9518
rfemur -19.7875 10.1594 4.29768
rtibia 38.3919
rfoot 20.3547 -5.76469
rtoes -26.9206
lfemur -29.3174 -1.05676 -19.9542
ltibia 34.3338
lfoot -17.4749 8.29519
ltoes 13.7543
213
root 4.62165 17.3318 2.81182 14.7583 -6.20398 -7.85865
lowerback -2.34688 -1.65802 5.58615
upperback -5.67315 -2.10167 2.98685
thorax -4.658 -1.22663 0.0141177
lowerneck -12.655 2.50719 -0.0098296
upperneck 39.9843 2.91509 1.81854
head 16.4482 1.38595 1.28423
rclavicle 1.6173e-014 1.93815e-014
rhumerus -1.86837 -10.0083 -0.105454
rradius 109.649
rwrist -48.4685
rhand -3.39119 -44.2964
rfingers 7.12502
rthumb 22.3385 -73.025
lclavicle 1.6173e-014 1.93815e-014
lhumerus 24.0165 22.9698 -6.26359
lradius 32.8142
lwrist 34.9083
lhand -22.9964 -19.2638
lfingers 7.12502
lthumb 3.44657 10.6881
rfemur -19.9066 10.1255 4.41269
rtibia 38.7184
rfoot 20.4518 -6.17151
rtoes -26.1842
lfemur -29.256 -1.02729 -19.8943
ltibia 34.4493
lfoot -17.5434 8.39187
ltoes 13.6071
214
root 4.62619 17.3302 2.812 14.7087 -6.19322 -7.95468
lowerback -2.25308 -1.7135 5.62367
upperback -5.60706 -2.16975 3.04065
thorax -4.6442 -1.25959 0.0519715
lowerneck -12.3687 2.43705 -0.506761
upperneck 39.8089 2.80846 2.18022
head 16.2632 1.3185 1.50217
rclavicle -2.70114e-014 8.00108e-015
rhumerus -1.76686 -9.66618 -0.396932
rradius 109.68
rwrist -48.3101
rhand -3.69687 -44.1637
rfingers 7.12502
rthumb 22.045 -72.9273
lclavicle -2.70114e-014 8.00108e-015
lhumerus 23.5881 22.7553 -6.33619
lradius 32.8472
lwrist 35.1009
lhand -23.2598 -19.6814
lfingers 7.12502
lthumb 3.19218 10.2744
rfemur -20.0598 10.1157 4.56789
rtibia 39.0115
rfoot 20.4377 -7.03835
rtoes -23.6297
lfemur -29.2577 -1.05367 -19.7912
ltibia 34.5442
lfoot -17.5805 8.3862
ltoes 13.7277
215
root 4.62828 17.3317 2.81124 14.7283 -6.22276 -8.05612
lowerback -2.17981 -1.71699 5.62686
upperback -5.5297 -2.17163 3.06694
thorax -4.60334 -1.25809 0.0776006
lowerneck -11.5221 2.47306 -1.0304
upperneck 39.2494 2.84055 2.60612
head 15.7378 1.32255 1.74899
rclavicle 1.38481e-014 -4.22417e-015
rhumerus -1.78576 -9.41885 -0.696857
rradius 109.63
rwrist -48.0736
rhand -4.32675 -44.088
rfingers 7.12502
rthumb 21.4402 -72.9216
lclavicle 1.38481e-014 -4.22417e-015
lhumerus 23.6176 23.0984 -5.85061
lradius 32.6761
lwrist 34.8014
lhand -22.9684 -19.3907
lfingers 7.12502
lthumb 3.47364 10.5607
rfemur -20.318 10.2445 4.69623
rtibia 39.2565
rfoot 20.5182 -7.17027
rtoes -21.8835
lfemur -29.3342 -1.04202 -19.6809
ltibia 34.6212
lfoot -17.5628 8.41095
ltoes 13.8161
216
root 4.62983 17.331 2.81116 14.7635 -6.23128 -8.14974
lowerback -2.15178 -1.68485 5.65139
upperback -5.51293 -2.12691 3.07038
thorax -4.60069 -1.23641 0.0669963
lowerneck -11.8563 2.26198 -0.949696
upperneck 39.5832 2.56501 2.42745
head 16.0073 1.18718 1.63042
rclavicle -4.37575e-014 4.59193e-014
rhumerus -1.91164 -9.12468 -0.962939
rradius 109.543
rwrist -47.7117
rhand -4.5654 -44.1618
rfingers 7.12502
rthumb 21.2109 -73.0213
lclavicle -4.37575e-014 4.59193e-014
lhumerus 23.8958 23.4503 -5.15193
lradius 32.3577
lwrist 34.0247
lhand -22.485 -19.3816
lfingers 7.12502
lthumb 3.94043 10.5617
rfemur -20.5071 10.3719 4.81964
rtibia 39.4429
rfoot 20.6104 -6.98865
rtoes -21.5966
lfemur -29.3918 -1.02434 -19.5872
ltibia 34.6527
lfoot -17.522 8.44901
ltoes 13.6997
217
root 4.63379 17.3303 2.81737 14.7098 -6.17785 -8.15077
lowerback -2.18411 -1.68841 5.64531
upperback -5.45666 -2.13826 3.03601
thorax -4.52441 -1.24036 0.0319389
lowerneck -12.8202 2.26409 -0.185783
upperneck 40.4298 2.59779 1.79154
head 16.7337 1.21352 1.26301
rclavicle 1.45097e-014 -2.84262e-014
rhumerus -2.04876 -8.79942 -1.21738
rradius 109.454
rwrist -47.4049
rhand -3.98496 -43.8462
rfingers 7.12502
rthumb 21.7684 -72.6421
lclavicle 1.45097e-014 -2.84262e-014
lhumerus 23.9309 23.454 -4.81678
lradius 32.2247
lwrist 33.6901
lhand -22.3035 -19.922
lfingers 7.12502
lthumb 4.1157 10.018
rfemur -20.4984 10.3684 4.88209
rtibia 39.5985
rfoot 20.5719 -7.09437
rtoes -21.9416
lfemur -29.3034 -1.11746 -19.5835
ltibia 34.637
lfoot -17.5534 8.45982
ltoes 13.8657
218
root 4.6391 17.3322 2.82714 14.6377 -6.19082 -8.11763
lowerback -2.20066 -1.71434 5.60485
upperback -5.38132 -2.17977 2.99334
thorax -4.437 -1.25766 0.00791802
lowerneck -12.3922 2.17588 -0.395649
upperneck 40.1511 2.48893 1.8711
head 16.4695 1.151 1.3012
rclavicle -1.08959e-014 -6.65929e-015
rhumerus -2.12889 -8.45369 -1.54362
rradius 109.394
rwrist -47.3317
rhand -3.74694 -43.5707
rfingers 7.12502
rthumb 21.9969 -72.3398
lclavicle -1.08959e-014 -6.65929e-015
lhumerus 23.6498 23.1135 -4.87348
lradius 32.3321
lwrist 34.1141
lhand -22.8724 -19.7756
lfingers 7.12502
lthumb 3.56627 10.1743
rfemur -20.516 10.3749 4.88323
rtibia 39.7589
rfoot 21.0107 -6.27715
rtoes -23.619
lfemur -29.1658 -1.17058 -19.6339
ltibia 34.5891
lfoot -17.606 8.49279
ltoes 14.1742
219
root 4.64467 17.3316 2.83372 14.5728 -6.30933 -7.98327
lowerback -2.15479 -1.71372 5.44893
upperback -5.33612 -2.18046 2.93169
thorax -4.41023 -1.25187 0.0304702
lowerneck -12.4039 2.10918 -0.430765
upperneck 40.3062 2.43053 1.78077
head 16.5589 1.10528 1.26121
rclavicle 3.63869e-014 -2.5345e-014
rhumerus -2.19481 -8.23831 -1.87385
rradius 109.375
rwrist -47.4132
rhand -3.44323 -43.5358
rfingers 7.12502
rthumb 22.2885 -72.2704
lclavicle 3.63869e-014 -2.5345e-014
lhumerus 23.3876 22.7247 -4.90286
lradius 32.3967
lwrist 34.4937
lhand -22.7799 -19.1254
lfingers 7.12502
lthumb 3.65562 10.823
rfemur -20.631 10.4753 4.69611
rtibia 39.9594
rfoot 21.4625 -5.82593
rtoes -23.6934
lfemur -29.0298 -1.11793 -19.8385
ltibia 34.518
lfoot -17.5984 8.53593
ltoes 14.0983
